<svg xmlns="http://www.w3.org/2000/svg" xmlns:svgjs="http://svgjs.com/svgjs" xmlns:xlink="http://www.w3.org/1999/xlink" width="288" height="288"><svg xmlns="http://www.w3.org/2000/svg" width="288" height="288" viewBox="0 0 24 24"><g fill="#fff" class="color000 svgShape" data-name="Layer 2"><path d="M21 6h-1V5a1 1 0 0 0-2 0v1h-1a1 1 0 0 0 0 2h1v1a1 1 0 0 0 2 0V8h1a1 1 0 0 0 0-2zm-11 5a4 4 0 1 0-4-4 4 4 0 0 0 4 4zm6 10a1 1 0 0 0 1-1 7 7 0 0 0-14 0 1 1 0 0 0 1 1" class="color000 svgShape" data-name="person-add"/></g></svg></svg>